?xml version="1.0" encoding="utf-8"?>
<svg width="24" height="32" viewBox="0 0 24 32" fill="none" xmlns="http://www.w3.org/2000/svg">
  <path d="M 22.55 6.897 C 22.549 6.858 22.541 6.821 22.528 6.785 C 22.527 6.782 22.526 6.779 22.525 6.777 C 22.508 6.733 22.484 6.691 22.45 6.656 L 17.347 1.525 C 17.313 1.49 17.271 1.467 17.228 1.449 C 17.224 1.448 17.221 1.447 17.218 1.446 C 17.183 1.433 17.147 1.426 17.11 1.424 C 17.103 1.424 17.096 1.42 17.088 1.42 L 1.757 1.42 C 1.561 1.42 1.402 1.58 1.402 1.778 L 1.402 29.674 C 1.402 29.871 1.561 30.031 1.757 30.031 L 22.199 30.031 C 22.395 30.031 22.554 29.871 22.554 29.674 L 22.554 6.916 C 22.554 6.91 22.551 6.904 22.55 6.897 Z M 17.451 2.648 L 21.333 6.551 L 17.451 6.551 L 17.451 2.648 Z M 21.843 29.316 L 2.113 29.316 L 2.113 2.135 L 16.74 2.135 L 16.74 6.909 C 16.74 7.107 16.899 7.267 17.096 7.267 L 21.843 7.267 L 21.843 29.316 Z" fill="#788EA5" style=""/>
  <path d="M 19.218 24.116 L 8.388 24.116 C 8.192 24.116 8.033 24.276 8.033 24.473 C 8.033 24.671 8.192 24.831 8.388 24.831 L 19.218 24.831 C 19.414 24.831 19.573 24.671 19.573 24.473 C 19.573 24.276 19.414 24.116 19.218 24.116 Z" fill="#788EA5" style=""/>
  <path d="M 19.218 19.742 L 8.388 19.742 C 8.192 19.742 8.033 19.902 8.033 20.1 C 8.033 20.297 8.192 20.457 8.388 20.457 L 19.218 20.457 C 19.414 20.457 19.573 20.297 19.573 20.1 C 19.573 19.902 19.414 19.742 19.218 19.742 Z" fill="#788EA5" style=""/>
  <path d="M 19.218 15.368 L 8.388 15.368 C 8.192 15.368 8.033 15.528 8.033 15.726 C 8.033 15.923 8.192 16.083 8.388 16.083 L 19.218 16.083 C 19.414 16.083 19.573 15.923 19.573 15.726 C 19.573 15.528 19.414 15.368 19.218 15.368 Z" fill="#788EA5" style=""/>
  <path d="M 8.033 11.352 C 8.033 11.549 8.192 11.71 8.388 11.71 L 19.218 11.71 C 19.414 11.71 19.573 11.549 19.573 11.352 C 19.573 11.154 19.414 10.994 19.218 10.994 L 8.388 10.994 C 8.192 10.994 8.033 11.154 8.033 11.352 Z" fill="#788EA5" style=""/>
  <path d="M 11.978 8.327 C 12.174 8.327 12.333 8.167 12.333 7.97 C 12.333 7.772 12.174 7.612 11.978 7.612 L 5.094 7.612 L 5.094 5.024 L 5.408 5.024 C 5.604 5.024 5.763 4.864 5.763 4.666 C 5.763 4.469 5.604 4.309 5.408 4.309 L 4.738 4.309 C 4.542 4.309 4.383 4.469 4.383 4.666 L 4.383 7.97 C 4.383 8.167 4.542 8.327 4.738 8.327 L 11.978 8.327 Z" fill="#788EA5" style=""/>
  <path d="M 12.82 7.718 C 12.756 7.782 12.717 7.875 12.717 7.968 C 12.717 7.993 12.721 8.018 12.724 8.04 C 12.727 8.061 12.735 8.086 12.746 8.108 C 12.752 8.129 12.763 8.151 12.777 8.169 C 12.792 8.187 12.806 8.208 12.82 8.222 C 12.888 8.29 12.98 8.326 13.072 8.326 C 13.165 8.326 13.257 8.29 13.325 8.222 C 13.392 8.158 13.428 8.065 13.428 7.968 C 13.428 7.875 13.392 7.782 13.325 7.718 C 13.193 7.582 12.955 7.586 12.82 7.718 Z" fill="#788EA5" style=""/>
  <path d="M 7.598 5.024 L 14.604 5.024 L 14.604 7.612 L 14.168 7.612 C 13.972 7.612 13.813 7.772 13.813 7.97 C 13.813 8.167 13.972 8.327 14.168 8.327 L 14.959 8.327 C 15.156 8.327 15.314 8.167 15.314 7.97 L 15.314 4.666 C 15.314 4.469 15.156 4.309 14.959 4.309 L 7.598 4.309 C 7.401 4.309 7.242 4.469 7.242 4.666 C 7.242 4.864 7.401 5.024 7.598 5.024 Z" fill="#788EA5" style=""/>
  <path d="M 6.502 5.025 C 6.527 5.025 6.548 5.021 6.573 5.018 C 6.594 5.014 6.616 5.007 6.637 4.996 C 6.659 4.989 6.68 4.978 6.701 4.964 C 6.719 4.95 6.737 4.935 6.754 4.918 C 6.818 4.853 6.857 4.76 6.857 4.667 C 6.857 4.571 6.818 4.478 6.754 4.413 C 6.737 4.395 6.719 4.381 6.701 4.37 C 6.68 4.356 6.659 4.345 6.637 4.335 C 6.616 4.328 6.594 4.32 6.573 4.317 C 6.456 4.292 6.331 4.331 6.25 4.413 C 6.186 4.481 6.147 4.571 6.147 4.667 C 6.147 4.76 6.186 4.853 6.25 4.918 C 6.317 4.986 6.41 5.025 6.502 5.025 Z" fill="#788EA5" style=""/>
  <path d="M 5.651 12.444 C 6.249 12.444 6.736 11.954 6.736 11.352 C 6.736 10.75 6.249 10.26 5.651 10.26 C 5.052 10.26 4.565 10.75 4.565 11.352 C 4.565 11.954 5.052 12.444 5.651 12.444 Z M 5.651 10.976 C 5.858 10.976 6.026 11.144 6.026 11.352 C 6.026 11.559 5.858 11.728 5.651 11.728 C 5.444 11.728 5.276 11.559 5.276 11.352 C 5.276 11.144 5.444 10.976 5.651 10.976 Z" fill="#42E8E0" style=""/>
  <path d="M 5.773 16.818 C 6.371 16.818 6.858 16.328 6.858 15.726 C 6.858 15.124 6.371 14.634 5.773 14.634 C 5.174 14.634 4.687 15.124 4.687 15.726 C 4.687 16.328 5.174 16.818 5.773 16.818 Z M 5.773 15.349 C 5.979 15.349 6.147 15.518 6.147 15.726 C 6.147 15.933 5.979 16.102 5.773 16.102 C 5.566 16.102 5.398 15.933 5.398 15.726 C 5.398 15.518 5.566 15.349 5.773 15.349 Z" fill="#42E8E0" style=""/>
  <path d="M 5.894 21.191 C 6.493 21.191 6.98 20.701 6.98 20.1 C 6.98 19.498 6.493 19.008 5.894 19.008 C 5.295 19.008 4.809 19.498 4.809 20.1 C 4.809 20.701 5.295 21.191 5.894 21.191 Z M 5.894 19.723 C 6.101 19.723 6.269 19.892 6.269 20.1 C 6.269 20.307 6.101 20.476 5.894 20.476 C 5.687 20.476 5.519 20.307 5.519 20.1 C 5.519 19.892 5.687 19.723 5.894 19.723 Z" fill="#42E8E0" style=""/>
  <path d="M 6.016 23.382 C 5.417 23.382 4.931 23.871 4.931 24.473 C 4.931 25.075 5.417 25.565 6.016 25.565 C 6.615 25.565 7.101 25.075 7.101 24.473 C 7.101 23.871 6.615 23.382 6.016 23.382 Z M 6.016 24.85 C 5.809 24.85 5.641 24.681 5.641 24.473 C 5.641 24.266 5.809 24.097 6.016 24.097 C 6.223 24.097 6.391 24.266 6.391 24.473 C 6.391 24.681 6.223 24.85 6.016 24.85 Z" fill="#42E8E0" style=""/>
</svg>